<svg width="20" height="20" viewBox="0 0 20 20" fill="none" xmlns="http://www.w3.org/2000/svg">
<path d="M18.75 16.4061H17.3438V10.2475L17.7937 10.6975C17.8819 10.7842 18.0008 10.8325 18.1245 10.832C18.2481 10.8314 18.3666 10.782 18.454 10.6945C18.5413 10.607 18.5906 10.4885 18.5911 10.3648C18.5915 10.2412 18.543 10.1224 18.4563 10.0343L10.7734 2.35066C10.6719 2.24909 10.5513 2.16851 10.4186 2.11354C10.2859 2.05857 10.1436 2.03027 10 2.03027C9.85636 2.03027 9.71412 2.05857 9.58141 2.11354C9.44871 2.16851 9.32813 2.24909 9.22656 2.35066L1.54375 10.0343C1.45697 10.1224 1.40852 10.2412 1.40895 10.3648C1.40938 10.4885 1.45865 10.607 1.54604 10.6945C1.63343 10.782 1.75185 10.8314 1.87551 10.832C1.99917 10.8325 2.11805 10.7842 2.20625 10.6975L2.65625 10.2475V16.4061H1.25C1.12568 16.4061 1.00645 16.4555 0.918544 16.5434C0.830636 16.6313 0.78125 16.7506 0.78125 16.8749C0.78125 16.9992 0.830636 17.1184 0.918544 17.2063C1.00645 17.2942 1.12568 17.3436 1.25 17.3436H18.75C18.8743 17.3436 18.9935 17.2942 19.0815 17.2063C19.1694 17.1184 19.2188 16.9992 19.2188 16.8749C19.2188 16.7506 19.1694 16.6313 19.0815 16.5434C18.9935 16.4555 18.8743 16.4061 18.75 16.4061ZM3.59375 9.31004L9.88906 3.01395C9.90359 2.9993 9.92087 2.98768 9.93991 2.97974C9.95895 2.97181 9.97937 2.96773 10 2.96773C10.0206 2.96773 10.041 2.97181 10.0601 2.97974C10.0791 2.98768 10.0964 2.9993 10.1109 3.01395L16.4062 9.31004V16.4061H12.3438V11.8749C12.3438 11.7506 12.2944 11.6313 12.2065 11.5434C12.1185 11.4555 11.9993 11.4061 11.875 11.4061H8.125C8.00068 11.4061 7.88145 11.4555 7.79354 11.5434C7.70564 11.6313 7.65625 11.7506 7.65625 11.8749V16.4061H3.59375V9.31004ZM11.4062 16.4061H8.59375V12.3436H11.4062V16.4061Z" fill="white"/>
</svg>
